<?xml version="1.0" encoding="UTF-8"?>
<svg version="1.1" xmlns="http://www.w3.org/2000/svg" width="512" height="512">
<path d="M0 0 C9.42763996 -0.54554155 19.15255146 2.47861197 26.390625 8.55859375 C33.4002441 15.24740649 38.85171889 22.74340867 39.23187733 32.7043829 C39.2412748 34.14355019 39.24518481 35.58275947 39.24482727 37.0219574 C39.24850396 37.816579 39.25218065 38.61120061 39.25596875 39.42990166 C39.26699208 42.09577106 39.2708472 44.76160146 39.2746582 47.42749023 C39.28092407 49.33799869 39.28757098 51.24850593 39.29457092 53.15901184 C39.31560608 59.43803052 39.32597556 65.71704942 39.3359375 71.99609375 C39.33998582 74.16022314 39.34410277 76.3243524 39.34828758 78.48848152 C39.36734122 88.66050654 39.38156963 98.83252431 39.38989955 109.00456375 C39.39966085 120.73001409 39.42595078 132.45527509 39.46640044 144.18065876 C39.49661737 153.25263132 39.51137388 162.32454981 39.51468056 171.3965717 C39.51702546 176.81008974 39.52591238 182.22340557 39.55114174 187.63686943 C39.57452385 192.73654122 39.57861506 197.83587912 39.56838036 202.93559074 C39.56788728 204.79909886 39.57413979 206.66262398 39.5879364 208.52608109 C39.71893822 227.28199399 35.80825355 242.65204686 22.5390625 256.60546875 C20.56606164 258.69211446 18.67312691 260.8078429 16.79296875 262.9765625 C13.10496569 267.21298959 9.27578596 271.30095501 5.41015625 275.375 C-0.5075022 281.63813509 -6.40604631 287.91621321 -12.22265625 294.2734375 C-13.92865855 296.12865283 -15.6510295 297.96904343 -17.39453125 299.7890625 C-29.64951063 312.7867679 -34.45511659 325.98637436 -34.0078125 343.8359375 C-33.97300781 344.61195313 -33.93820312 345.38796875 -33.90234375 346.1875 C-32.51595703 346.38279297 -32.51595703 346.38279297 -31.1015625 346.58203125 C-26.04408549 347.53918502 -22.9652829 349.66395388 -20.02734375 353.875 C-17.07982115 362.55381654 -19.79045389 370.8673763 -22.15234375 379.375 C-22.45269531 380.52419922 -22.75304687 381.67339844 -23.0625 382.85742188 C-24.93307206 389.73077921 -26.58894288 395.17531739 -31.96484375 400.0625 C-42.80752922 404.21501784 -55.37485192 399.04689992 -65.9921875 396.140625 C-67.97824759 395.60769552 -69.96462913 395.07596273 -71.9513092 394.54534912 C-77.19347069 393.14170061 -82.43102286 391.72155013 -87.66778564 390.2979126 C-92.82852793 388.89807453 -97.9935292 387.51415367 -103.15820312 386.12890625 C-110.31159475 384.20904762 -117.46149875 382.27703274 -124.60766029 380.33043671 C-125.61611189 380.05574806 -126.62456348 379.78105942 -127.66357422 379.49804688 C-128.66854635 379.22430489 -129.67351849 378.9505629 -130.70894432 378.6685257 C-136.92974828 376.9793079 -143.15953885 375.32911952 -149.39858532 373.70860672 C-153.47559559 372.64807304 -157.54879686 371.57333975 -161.62167549 370.49706268 C-163.53884258 369.99451507 -165.4577951 369.49872286 -167.37858391 369.0102005 C-170.03019064 368.33516669 -172.67454536 367.63654793 -175.31860352 366.93261719 C-176.08902796 366.74319801 -176.8594524 366.55377884 -177.65322304 366.35861969 C-183.9417037 364.64266752 -188.75253074 361.41221951 -192.40234375 355.9375 C-193.93752551 347.49400034 -190.95340889 338.57914114 -188.71484375 330.5 C-188.2962207 328.86708008 -188.2962207 328.86708008 -187.86914062 327.20117188 C-186.10804419 320.80602036 -184.17958856 315.47706734 -178.90234375 311.1875 C-175.88743818 310.18253148 -173.86052683 310.08414697 -170.71484375 310.125 C-169.81378906 310.13402344 -168.91273438 310.14304687 -167.984375 310.15234375 C-166.95376953 310.16974609 -166.95376953 310.16974609 -165.90234375 310.1875 C-166.43605843 300.76467526 -167.57691844 291.46247039 -168.88598633 282.11914062 C-171.20782767 264.69170645 -169.88970014 249.20764451 -159.68359375 234.421875 C-157.47974667 231.59261185 -154.90990378 229.29011444 -152.19821167 226.97242737 C-148.1346359 223.43778476 -144.3205808 219.71513238 -140.54345703 215.87866211 C-139.85609467 215.1850206 -139.1687323 214.49137909 -138.46054077 213.77671814 C-136.98198787 212.28441567 -135.5045203 210.79103721 -134.02804947 209.29667473 C-131.68424506 206.92599207 -129.33588533 204.55991328 -126.98605347 202.19520569 C-120.30978019 195.47641734 -113.63622391 188.75500816 -106.97900391 182.01733398 C-102.89363438 177.88325958 -98.79840864 173.75917172 -94.69671249 169.64129829 C-93.14382873 168.07856575 -91.59459488 166.51219691 -90.04922867 164.94202995 C-78.07636334 152.78125354 -67.27759446 142.22794609 -49.27734375 141.875 C-45.56739488 141.88901744 -42.27338906 142.28191457 -38.69775391 143.20629883 C-36.81902588 143.69199341 -36.81902588 143.69199341 -34.90234375 144.1875 C-34.90510913 143.61949991 -34.90787451 143.05149982 -34.91072369 142.46628761 C-34.97713866 128.60977809 -35.02650766 114.75329666 -35.05778027 100.89666176 C-35.07321238 94.19553083 -35.0946097 87.4945222 -35.12866211 80.79345703 C-35.1613381 74.32251229 -35.17921427 67.8516781 -35.18697548 61.3806572 C-35.19250416 58.91600175 -35.20330027 56.45135212 -35.21953392 53.98674393 C-35.24141725 50.52569916 -35.24430606 47.06510709 -35.24291992 43.60400391 C-35.25370575 42.59267395 -35.26449158 41.58134399 -35.27560425 40.53936768 C-35.22311506 28.36995125 -31.45921138 18.95153207 -23.27734375 10 C-16.75426635 3.72400887 -8.86355236 0.87361502 0 0 Z M-13.33984375 24.5625 C-18.58498426 30.86862334 -18.20894065 38.19193769 -18.22460938 45.96923828 C-18.23453918 47.15052811 -18.24446899 48.33181793 -18.25469971 49.54890442 C-18.27884374 52.77861424 -18.29381457 56.0081796 -18.30272102 59.2379632 C-18.30860384 61.26128259 -18.31681749 63.28457986 -18.32572937 65.30788803 C-18.35305169 71.65425411 -18.37239671 78.00056897 -18.38013315 84.34698975 C-18.38907921 91.64326185 -18.42411375 98.93878171 -18.48213434 106.23482525 C-18.52555411 111.89370089 -18.54555162 117.55236637 -18.54821539 123.21140659 C-18.55029894 126.58224369 -18.56183889 129.95237248 -18.59785461 133.32303238 C-18.63218285 137.09238987 -18.62816631 140.85994173 -18.61523438 144.62939453 C-18.63366394 145.72696579 -18.65209351 146.82453705 -18.67108154 147.95536804 C-18.59348595 155.21985244 -16.89732247 160.22153587 -13.32405853 166.54623222 C-8.45513351 175.59174186 -9.21701071 185.48424191 -11.66015625 195.12109375 C-15.5490835 204.72111858 -21.83155815 211.73247433 -29.0859375 218.97265625 C-30.06993594 219.96445078 -31.05349388 220.95668252 -32.03663635 221.94932556 C-34.08322624 224.01071668 -36.13723171 226.0643479 -38.1965332 228.11303711 C-40.82739855 230.73224336 -43.43465934 233.37365887 -46.03648281 236.02167606 C-48.0549895 238.0696865 -50.08722364 240.10363271 -52.12364388 242.13381767 C-53.09113914 243.10233513 -54.0539576 244.07554928 -55.0118084 245.05360603 C-63.39836966 253.59541156 -63.39836966 253.59541156 -67.86743164 254.35327148 C-71.51071389 254.1542699 -73.19712874 253.65401957 -75.90234375 251.1875 C-76.96484375 248.4375 -76.96484375 248.4375 -76.90234375 245.1875 C-74.37622933 240.01725303 -71.45124049 236.4395322 -67.09375 232.671875 C-65.92796557 231.62905623 -64.76414674 230.58403694 -63.60205078 229.53710938 C-62.99613098 228.99304443 -62.39021118 228.44897949 -61.76593018 227.88842773 C-56.6170526 223.18895765 -51.69526754 218.24438302 -46.7512207 213.33154297 C-45.46525111 212.05723564 -44.17479211 210.78744454 -42.88012695 209.52197266 C-40.97003813 207.6546381 -39.07363328 205.77431455 -37.1796875 203.890625 C-36.32031837 203.05751801 -36.32031837 203.05751801 -35.44358826 202.20758057 C-29.58206469 196.31420298 -26.3377432 189.97632008 -25.80078125 181.640625 C-26.05748419 175.44026162 -29.01520647 169.9150994 -32.90234375 165.1875 C-39.56887281 160.10169433 -45.55818292 158.33331026 -53.90234375 159.1875 C-60.69397274 161.25254279 -65.22062363 164.85997009 -69.96484375 170 C-73.27723492 173.49535409 -76.54503163 176.93923088 -80.23510742 180.04003906 C-86.81956119 185.76389627 -92.9233763 192.00210005 -99.10546875 198.15234375 C-99.77715843 198.8199579 -100.44884811 199.48757206 -101.14089203 200.17541695 C-104.68867062 203.70245756 -108.23325097 207.23267765 -111.77539062 210.76538086 C-115.42066122 214.39954714 -119.07746944 218.02187354 -122.73692703 221.64174557 C-125.56438058 224.44301539 -128.38287479 227.25317213 -131.19905853 230.06576729 C-132.5432357 231.40509173 -133.89077309 232.741053 -135.2417984 234.07346916 C-137.13206298 235.93928111 -139.0091882 237.81744306 -140.88378906 239.69897461 C-141.43658539 240.23896088 -141.98938171 240.77894714 -142.55892944 241.33529663 C-149.23555454 248.10183624 -152.9209629 256.67684499 -153.1015625 266.20703125 C-153.0402742 273.96641519 -151.84549046 281.6511007 -150.82104492 289.32983398 C-150.46349551 292.01010672 -150.11474003 294.69141073 -149.76757812 297.37304688 C-149.54347267 299.08860757 -149.31888052 300.80410477 -149.09375 302.51953125 C-148.98954239 303.31543167 -148.88533478 304.11133209 -148.77796936 304.93135071 C-148.62792702 306.05358284 -148.62792702 306.05358284 -148.47485352 307.19848633 C-148.38824966 307.85005203 -148.30164581 308.50161774 -148.2124176 309.17292786 C-147.84994865 311.52791471 -147.38360595 313.854178 -146.90234375 316.1875 C-146.00270905 316.42695847 -145.10307434 316.66641693 -144.17617798 316.91313171 C-135.61671768 319.1915656 -127.05753364 321.47103472 -118.49860573 323.7514677 C-114.10044155 324.92327639 -109.70218731 326.09474454 -105.30371094 327.26538086 C-101.04350926 328.39923032 -96.78356547 329.53404419 -92.52378464 330.66947365 C-90.91433882 331.09829518 -89.30480678 331.52679331 -87.69517899 331.95493126 C-85.40673129 332.56369034 -83.11855572 333.17345602 -80.83056641 333.78393555 C-79.73664046 334.07570946 -79.73664046 334.07570946 -78.62061501 334.3733778 C-74.68672433 335.42709275 -70.75979235 336.5025004 -66.83856201 337.60244751 C-65.59672936 337.95061004 -65.59672936 337.95061004 -64.32980919 338.30580616 C-62.73702948 338.75380182 -61.14491594 339.20417458 -59.55356789 339.65722942 C-55.78684517 340.78483262 -55.78684517 340.78483262 -51.90234375 341.1875 C-51.80530151 340.28994995 -51.80530151 340.28994995 -51.70629883 339.37426758 C-49.32321112 318.07375917 -44.39004531 301.48737597 -28.23828125 286.48046875 C-25.59507416 283.88588253 -23.20853761 281.1294398 -20.78515625 278.33081055 C-17.68534677 274.80212442 -14.44711025 271.4069729 -11.21484375 268 C-9.80561918 266.50685991 -8.39676862 265.01336676 -6.98828125 263.51953125 C-5.9533252 262.4224585 -5.9533252 262.4224585 -4.89746094 261.30322266 C14.16974675 242.85770406 14.16974675 242.85770406 22.25587463 218.71556091 C22.27055928 217.37606998 22.27055928 217.37606998 22.28554058 216.00951862 C22.2912951 215.03498832 22.29704962 214.06045801 22.30297852 213.05639648 C22.31781517 211.50337845 22.31781517 211.50337845 22.33295155 209.91898632 C22.36467993 206.46554559 22.38942308 203.01209179 22.4140625 199.55859375 C22.43482791 197.12128391 22.45596332 194.6839772 22.47744751 192.24667358 C22.53347478 185.72053525 22.58299767 179.19436076 22.63048935 172.66815567 C22.65986247 168.63808477 22.69094779 164.60802817 22.72232056 160.57797241 C22.85402778 143.59353488 22.97122998 126.60902933 23.07633972 109.62440491 C23.09632444 106.40222956 23.1167834 103.18005755 23.1373291 99.95788574 C23.19971329 90.02664458 23.25046783 80.09550707 23.27389526 70.16409302 C23.28044604 67.40956237 23.2912658 64.65510334 23.30593872 61.90060425 C23.32346449 58.16934811 23.32796246 54.43832293 23.328125 50.70703125 C23.3352652 49.66453217 23.3424054 48.62203308 23.34976196 47.54794312 C23.32088137 38.33119724 22.94403647 29.03388022 16.09765625 22.1875 C6.46489101 15.01014551 -5.07793701 15.56042244 -13.33984375 24.5625 Z M-169.90234375 327.1875 C-170.77016655 330.28801447 -171.61921142 333.39336665 -172.46484375 336.5 C-172.71169922 337.38107422 -172.95855469 338.26214844 -173.21289062 339.16992188 C-173.44169922 340.01748047 -173.67050781 340.86503906 -173.90625 341.73828125 C-174.12095947 342.51856689 -174.33566895 343.29885254 -174.55688477 344.1027832 C-175.09987832 346.37333794 -175.09987832 346.37333794 -173.90234375 349.1875 C-171.45130193 350.1044991 -169.13434361 350.80724054 -166.60839844 351.44897461 C-165.84094677 351.6546704 -165.0734951 351.86036619 -164.28278732 352.07229519 C-161.71631041 352.75692073 -159.14543727 353.4232671 -156.57421875 354.08984375 C-154.76764516 354.56809533 -152.96137554 355.04749648 -151.15539551 355.52798462 C-146.32193245 356.81061391 -141.48453683 358.07775562 -136.64613342 359.34160233 C-131.68611455 360.63951156 -126.7293996 361.94990705 -121.77246094 363.25952148 C-115.89771226 364.81086374 -110.02264243 366.3609295 -104.14581299 367.90437317 C-93.49848217 370.70156942 -82.86307579 373.53493143 -72.24609375 376.4453125 C-70.11752805 377.02617813 -67.98894823 377.606992 -65.86035156 378.18774414 C-63.03126745 378.96015037 -60.20332266 379.73579601 -57.3782959 380.5229187 C-54.89418483 381.21432677 -52.40674801 381.89203604 -49.91796875 382.56640625 C-49.21700073 382.76618073 -48.51603271 382.9659552 -47.79382324 383.17178345 C-45.72935325 383.75341067 -45.72935325 383.75341067 -42.90234375 384.1875 C-40.19900318 381.48415943 -39.66369954 378.46832031 -38.71484375 374.875 C-38.52470703 374.21048828 -38.33457031 373.54597656 -38.13867188 372.86132812 C-37.07073441 368.87725146 -36.94965153 366.15940166 -37.90234375 362.1875 C-38.82305664 361.94075027 -39.74376953 361.69400055 -40.69238281 361.43977356 C-51.48019553 358.54854879 -62.26771012 355.65621288 -73.05511475 352.76346588 C-75.88779299 352.00390169 -78.72050457 351.24446194 -81.55322266 350.48504639 C-118.52851979 340.5718956 -118.52851979 340.5718956 -135.96484375 335.83203125 C-137.11001465 335.52084854 -138.25518555 335.20966583 -139.43505859 334.88905334 C-144.56324732 333.4947915 -149.69047168 332.09710591 -154.81640625 330.69458008 C-156.57420589 330.21561037 -158.33201749 329.73668452 -160.08984375 329.2578125 C-160.8691626 329.04328934 -161.64848145 328.82876617 -162.45141602 328.60774231 C-166.1236739 327.55638942 -166.1236739 327.55638942 -169.90234375 327.1875 Z " fill="#000000" transform="translate(471.90234375,109.8125)"/>
<path d="M0 0 C8.22470101 6.6792098 13.20146041 14.50575965 15 25 C15.08410291 26.61605147 15.12207072 28.23498828 15.12025452 29.85322571 C15.12231651 31.27711357 15.12231651 31.27711357 15.12442017 32.72976685 C15.11902725 34.27372635 15.11902725 34.27372635 15.11352539 35.84887695 C15.11367142 36.94200699 15.11381744 38.03513702 15.1139679 39.16139221 C15.11327188 42.77037549 15.10549396 46.379307 15.09765625 49.98828125 C15.09579097 52.49220247 15.09436758 54.99612406 15.09336853 57.50004578 C15.08994201 63.41435416 15.08206247 69.32864598 15.07201904 75.24294585 C15.05973246 82.63917414 15.05437139 90.03540474 15.04882812 97.43164062 C15.03810611 110.62110316 15.02123254 123.81055041 15 137 C16.97677612 136.48895772 18.95355225 135.97791545 20.93032837 135.46687317 C32.80347291 132.78854848 43.39881457 136.1122138 53.44031334 142.25806999 C57.44229178 144.98151519 60.7465396 148.22060199 64.12426758 151.67016602 C64.86872131 152.41403564 65.61317505 153.15790527 66.38018799 153.92431641 C68.81125292 156.35814261 71.22787525 158.80577954 73.64453125 161.25390625 C75.34374004 162.96058803 77.04384353 164.66637944 78.74479675 166.37132263 C83.20195256 170.84368196 87.6469694 175.32791611 92.08947754 179.81481934 C96.6116277 184.37791962 101.14513638 188.92970362 105.67773438 193.48242188 C112.9936196 200.83339385 120.30250936 208.19123491 127.60246277 215.55802917 C130.33317722 218.31339611 133.06612504 221.06603458 135.81108093 223.80723572 C145.71901612 233.7325759 150.01145492 245.31921099 150.16796875 259.3203125 C150.121841 267.10511855 149.04918955 274.74021589 148 282.4375 C147.71199444 284.58763547 147.42626473 286.73802887 147.14404297 288.88893127 C146.88972717 290.82167077 146.62866406 292.75351897 146.3671875 294.68530273 C146.05554841 297.49855005 145.92493821 300.17479503 146 303 C146.66386719 302.96519531 147.32773438 302.93039062 148.01171875 302.89453125 C157.03479275 302.61791146 157.03479275 302.61791146 161 306 C165.67852308 311.16874123 166.98789869 316.65708773 168.7746582 323.27294922 C169.3088604 325.23662121 169.87269561 327.19004226 170.43945312 329.14453125 C174.40146155 343.53171269 174.40146155 343.53171269 171.16113281 350.91015625 C168.10461258 355.50591372 163.94071831 356.92461271 158.83276367 358.41186523 C158.12869731 358.62395598 157.42463095 358.83604673 156.69922924 359.05456448 C148.75723749 361.42081436 140.751631 363.55139149 132.73828125 365.66015625 C131.111033 366.09132782 129.48387357 366.52283471 127.85679626 366.95465088 C123.5593904 368.09421391 119.26087889 369.22954319 114.96199036 370.36349869 C107.84683627 372.24065292 100.73283354 374.1221714 93.61877823 376.00348473 C91.85597681 376.46957317 90.09312642 376.9354764 88.3302269 377.40119362 C77.60133237 380.23590988 66.88386216 383.10566717 56.18359375 386.046875 C54.09664605 386.61728083 52.00965301 387.18752078 49.92260742 387.75756836 C47.12960469 388.52066055 44.33815271 389.2877348 41.5506897 390.0708313 C19.92026941 396.14702665 19.92026941 396.14702665 11.5625 392.5 C5.57107194 386.65470434 3.7696577 378.49754327 1.75 370.625 C1.481875 369.64789063 1.21375 368.67078125 0.9375 367.6640625 C-2.85203105 353.12463725 -2.85203105 353.12463725 -0.03564453 346.85229492 C2.75294892 342.30734638 5.99967816 340.57417539 11 339 C11.99 339 12.98 339 14 339 C14.59046564 318.36650619 8.9401482 304.93733415 -5 290 C-6.98558662 287.94868838 -8.99447126 285.93435264 -11.04760742 283.95092773 C-12.87433242 282.12557329 -14.56570055 280.24872093 -16.24609375 278.2890625 C-19.98914802 273.97844242 -23.8830538 269.82781775 -27.8125 265.6875 C-29.22439937 264.18921757 -30.63585826 262.69051993 -32.046875 261.19140625 C-34.36217482 258.73346546 -36.68431641 256.28258696 -39.015625 253.83984375 C-50.73823352 241.34411841 -59.35087525 227.15219014 -59.26069641 209.65760803 C-59.26452196 208.85674646 -59.26834751 208.05588489 -59.27228898 207.23075479 C-59.28254405 204.56791214 -59.2786412 201.90528813 -59.2746582 199.24243164 C-59.2790088 197.32484235 -59.28419311 195.40725479 -59.29014587 193.4896698 C-59.30350893 188.29547034 -59.30411759 183.10134377 -59.30158257 177.90713048 C-59.30051115 173.56570301 -59.30540057 169.22429018 -59.310188 164.88286585 C-59.32127362 154.63877763 -59.32172574 144.39472608 -59.31567383 134.15063477 C-59.30963252 123.59305494 -59.32195124 113.03560834 -59.3432439 102.47805125 C-59.36087226 93.40265653 -59.36685935 84.32730418 -59.36360615 75.25189298 C-59.36179531 69.83637488 -59.36440981 64.42095185 -59.37832069 59.0054493 C-59.39091466 53.91233102 -59.38894002 48.81942018 -59.37590981 43.72630501 C-59.373548 41.86112396 -59.37626449 39.99592823 -59.38453293 38.13076401 C-59.44293953 23.9275372 -58.30392603 13.75037366 -48.18359375 3.0859375 C-34.94874719 -9.48048247 -14.76605359 -10.41261366 0 0 Z M-37.9375 17.08984375 C-42.74853372 23.85535991 -43.12293617 30.2399059 -43.13371277 38.4359436 C-43.13597833 39.15145744 -43.13824388 39.86697127 -43.14057809 40.60416734 C-43.14687127 42.98433795 -43.14609175 45.36445093 -43.14526367 47.74462891 C-43.14825817 49.45853753 -43.15166137 51.17244547 -43.15544128 52.88635254 C-43.16425789 57.53129447 -43.16661847 62.17621797 -43.16725707 66.82116747 C-43.16796913 69.72810462 -43.17010644 72.63503712 -43.17275429 75.54197311 C-43.18200137 85.6977442 -43.18609015 95.85350219 -43.18530273 106.00927734 C-43.18470275 115.45167156 -43.19524058 124.8940085 -43.2110464 134.33638823 C-43.22415884 142.4615088 -43.22948505 150.58661074 -43.22884732 158.71174181 C-43.22859334 163.55617626 -43.23138906 168.40055983 -43.24202538 173.24498367 C-43.25176836 177.80702077 -43.2517434 182.368959 -43.24450874 186.93099976 C-43.24347043 188.59615601 -43.2457805 190.26131863 -43.2518692 191.92646408 C-43.32573086 213.5436241 -39.82532567 227.84502425 -24.54052734 243.41503906 C-22.1751918 245.84859823 -19.90570824 248.36184144 -17.625 250.875 C-13.46744303 255.4239366 -9.27021393 259.93497079 -5.0625 264.4375 C-4.47275391 265.06994629 -3.88300781 265.70239258 -3.27539062 266.35400391 C-0.43542841 269.39893595 2.41129843 272.43662706 5.27734375 275.45703125 C22.23025274 293.41151135 29.47694665 309.6370142 32 334 C43.98140534 331.2605397 55.86095884 328.23143803 67.72265625 325.015625 C69.44707428 324.55027883 71.17155781 324.08517536 72.89610291 323.62030029 C77.37309831 322.41278223 81.84921326 321.20203303 86.32513428 319.99053955 C90.91738656 318.74819754 95.51048958 317.50900892 100.10351562 316.26953125 C109.06983179 313.84938808 118.03521827 311.42582043 127 309 C127.69448144 304.01963062 128.38822137 299.0391587 129.08129883 294.05859375 C129.31677615 292.36715968 129.55244983 290.67575293 129.78833008 288.984375 C130.12894519 286.54173976 130.46883477 284.09900445 130.80859375 281.65625 C130.96490517 280.53700134 130.96490517 280.53700134 131.12437439 279.3951416 C134.02146868 260.33040378 134.02146868 260.33040378 129 242 C122.02539834 233.4124959 113.87807954 225.73121018 106.05859375 217.92578125 C104.72284133 216.5893534 103.38723724 215.25277729 102.05177307 213.9160614 C99.26896359 211.13178723 96.48437828 208.34930505 93.69848633 205.56811523 C90.14586134 202.02119793 86.59776097 198.46979372 83.05097866 194.9170351 C80.29971159 192.16213859 77.54604763 189.40964778 74.79167366 186.65785789 C73.48293957 185.34978591 72.17493407 184.0409845 70.86770439 182.73140907 C61.93447092 173.75103044 61.93447092 173.75103044 52.50563049 165.29917908 C50.34186286 163.43210635 48.43549794 161.34927084 46.5 159.25 C41.29663066 154.01990102 36.84402318 151.96453532 29.5 151.625 C23.4821109 151.86364043 18.81864336 153.42935346 14.25 157.375 C13.5075 158.24125 12.765 159.1075 12 160 C11.278125 160.78375 10.55625 161.5675 9.8125 162.375 C6.03745676 167.842304 5.78638656 172.88091098 6.3203125 179.27734375 C8.40790663 187.63971793 13.275187 192.8373795 19.2734375 198.69921875 C20.07480133 199.49729446 20.87616516 200.29537018 21.70181274 201.11763 C24.25029716 203.6504458 26.8126165 206.16875513 29.375 208.6875 C31.08940648 210.39040583 32.80295696 212.0941739 34.515625 213.79882812 C36.16329188 215.43306898 37.81170465 217.06655824 39.4609375 218.69921875 C40.2267514 219.45764572 40.99256531 220.21607269 41.78158569 220.9974823 C44.9043436 224.06513831 48.01212519 227.07464496 51.40869141 229.83911133 C54.46180173 232.38509583 55.78735658 234.2104893 57 238 C56.09615385 244.02564103 56.09615385 244.02564103 53.3125 246.5 C49.94393936 247.22833744 47.35981949 246.72583241 44 246 C41.45225525 244.20742798 41.45225525 244.20742798 39.07788086 241.83837891 C38.17682114 240.95300446 37.27576141 240.06763 36.34739685 239.15542603 C35.3858566 238.17981698 34.4250232 237.20351085 33.46484375 236.2265625 C32.45883863 235.22206217 31.45186829 234.21852767 30.44398499 233.21591187 C28.33563744 231.11189048 26.23822583 228.99769994 24.14819336 226.87548828 C21.49173015 224.17947601 18.81172817 221.50845875 16.12306881 218.84459877 C14.03826494 216.77411274 11.96594988 214.69146666 9.89706612 212.60508347 C8.91475532 211.61699035 7.92896948 210.63233759 6.93943596 209.65147781 C-3.12716458 199.64376707 -9.63526526 189.60547739 -10.375 175.25 C-10.21451779 167.90220731 -8.14942476 160.10014173 -3.95324707 154.04794312 C-1.04680871 148.98767838 -1.44092004 143.7508553 -1.48242188 138.05712891 C-1.4754126 136.87087418 -1.46840332 135.68461945 -1.46118164 134.4624176 C-1.44663927 131.22450463 -1.44998336 127.98725068 -1.46269798 124.74934816 C-1.47287172 121.34894782 -1.4634198 117.94858945 -1.45715332 114.54818726 C-1.44988757 108.83705826 -1.45943414 103.12613654 -1.47851562 97.41503906 C-1.50026169 90.83078317 -1.49324559 84.24702324 -1.47121 77.66277945 C-1.45300022 71.99286261 -1.45052538 66.32309426 -1.46096468 60.65315759 C-1.46717185 57.27425992 -1.46811305 53.89559454 -1.45481873 50.51671219 C-1.44462278 46.74469094 -1.46020003 42.97361156 -1.48242188 39.20166016 C-1.47432495 38.09487411 -1.46622803 36.98808807 -1.45788574 35.84776306 C-1.53875057 28.4117731 -2.54510191 21.79598658 -7.70891571 16.12236977 C-12.10911712 12.00268556 -16.28106851 10.36601001 -22.25 9.5625 C-28.4244972 10.28285801 -33.65905309 12.4749867 -37.9375 17.08984375 Z M142.51123047 321.41430664 C141.34878311 321.72679352 140.18633575 322.0392804 138.98866272 322.36123657 C137.69816236 322.71084465 136.4076709 323.06048559 135.1171875 323.41015625 C133.76991384 323.77321049 132.4225766 324.13602883 131.07518005 324.49862671 C127.43179794 325.47973499 123.78923014 326.4638347 120.14682388 327.44855881 C114.0527031 329.09544341 107.95725124 330.73740188 101.86209297 332.38044167 C99.52208677 333.01133619 97.18217614 333.64258435 94.8422699 334.27384949 C85.35189018 336.83325196 75.85728587 339.3762091 66.3577652 341.90146828 C64.3936501 342.42369018 62.42967857 342.94644838 60.46575928 343.46940613 C50.31513055 346.17215185 50.31513055 346.17215185 45.7164917 347.38919067 C42.36862458 348.27541142 39.02209053 349.16651184 35.67578125 350.05859375 C34.7047496 350.31410004 33.73371796 350.56960632 32.73326111 350.83285522 C27.34917901 352.27360571 22.18487303 353.95241004 17 356 C17.57686542 363.35503412 19.73367266 370.00544346 22 377 C34.82739853 374.08086584 47.53173448 370.78373279 60.23046875 367.3515625 C62.23849061 366.81092338 64.24657403 366.27051282 66.25471497 365.73031616 C71.50252821 364.3179417 76.74945996 362.9023196 81.99621582 361.48602295 C86.22933819 360.34390733 90.46306623 359.20404719 94.69683361 358.06432533 C101.71963809 356.17378014 108.74208221 354.28189663 115.76420593 352.38882446 C116.67411946 352.14359228 117.58403299 351.8983601 118.52151966 351.64569664 C120.311658 351.16207543 122.10133201 350.67673173 123.89050579 350.18955421 C128.65855185 348.89228015 133.43269018 347.62794869 138.21987915 346.40301514 C139.23781461 346.13782263 140.25575006 345.87263012 141.30453205 345.59940147 C143.26849227 345.08800454 145.23505065 344.58645884 147.20434093 344.09598732 C148.08056764 343.86550383 148.95679434 343.63502033 149.85957336 343.39755249 C151.02520797 343.10052964 151.02520797 343.10052964 152.21439075 342.79750633 C152.80364181 342.53432924 153.39289286 342.27115215 154 342 C155.10313617 338.6905915 154.89941114 337.80517706 154.00390625 334.55078125 C153.77509766 333.70322266 153.54628906 332.85566406 153.31054688 331.98242188 C152.94026367 330.66081055 152.94026367 330.66081055 152.5625 329.3125 C152.31951172 328.41982422 152.07652344 327.52714844 151.82617188 326.60742188 C151.22490694 324.40278378 150.61593343 322.20057655 150 320 C147.33418881 320 145.08902589 320.71839761 142.51123047 321.41430664 Z " fill="#000000" transform="translate(60,117)"/>
<path d="M0 0 C1.84597778 0.00737183 1.84597778 0.00737183 3.72924805 0.01489258 C12.93952376 0.13326098 21.35711535 0.87092676 30.25 3.3125 C31.44625 3.62960938 32.6425 3.94671875 33.875 4.2734375 C64.0095906 13.275508 88.42239547 34.19028974 103.5 61.5625 C118.27808947 89.65630211 120.35849496 122.72582717 111.0625 152.875 C100.46033734 182.66202843 80.2819109 205.76387166 52.25 220.3125 C51.35023438 220.78300781 50.45046875 221.25351563 49.5234375 221.73828125 C22.08566565 235.12559289 -10.47530146 235.75391735 -39.10791016 225.9206543 C-52.2215156 221.10579521 -64.00010397 214.20842845 -74.75 205.3125 C-75.59820312 204.62800781 -76.44640625 203.94351563 -77.3203125 203.23828125 C-99.30426828 184.59671373 -112.611425 156.70913099 -115.75 128.3125 C-117.45138491 93.77672605 -108.92503272 63.32614164 -85.5 37.25 C-63.16275735 13.11305591 -32.74069949 -0.15529719 0 0 Z M-67.75 44.3125 C-69.049375 45.55 -69.049375 45.55 -70.375 46.8125 C-71.15875 47.6375 -71.9425 48.4625 -72.75 49.3125 C-73.34167969 49.90933594 -73.93335938 50.50617188 -74.54296875 51.12109375 C-91.57460215 69.07513669 -99.47284721 94.28983274 -99.15234375 118.67480469 C-98.46388454 139.74322129 -91.44595382 159.37887256 -78.75 176.1875 C-78.3468457 176.72334717 -77.94369141 177.25919434 -77.52832031 177.8112793 C-74.60563256 181.55149798 -71.45373453 184.39473239 -67.75 187.3125 C-67.10675781 186.6834375 -66.46351563 186.054375 -65.80078125 185.40625 C-54.84531447 175.02903182 -42.45808756 168.37970335 -28.75 162.3125 C-31.269013 159.74268337 -33.65595005 157.38146997 -36.5625 155.25 C-45.98262985 147.46074534 -50.8290897 135.08929586 -52.75 123.3125 C-53.8004281 107.13186708 -50.17721738 92.551571 -39.5625 80 C-30.26020572 70.29258068 -17.69892507 63.87914195 -4.18359375 63.109375 C12.83593159 62.90973247 26.32282662 66.85591666 38.9609375 78.83203125 C49.67051411 90.43711853 53.62374069 104.15738607 53.4609375 119.65625 C52.64650745 133.7730376 46.53404338 146.64036707 36.25 156.3125 C33.97762249 158.14242972 31.70560773 159.72658668 29.25 161.3125 C31.48495929 163.54745929 33.29387962 164.31703929 36.1875 165.5625 C46.224232 170.08554676 54.43664662 174.91347406 62.56762695 182.34985352 C65.87049377 185.56382013 65.87049377 185.56382013 70.25 186.3125 C86.82073317 171.62547362 97.30222946 148.17081389 99.25 126.3125 C100.7453103 98.54162042 93.69391758 72.53082043 75.25 51.3125 C74.8065625 50.72597656 74.363125 50.13945313 73.90625 49.53515625 C59.674977 31.09524458 34.81627611 20.25918028 12.25 17.3125 C8.3279574 17.03603305 4.43089152 16.97769436 0.5 17 C-0.55058594 17.00563965 -1.60117188 17.0112793 -2.68359375 17.01708984 C-27.37059692 17.40045198 -50.21559541 26.91508294 -67.75 44.3125 Z M-27.75 91.3125 C-34.50618632 100.03567728 -37.98880147 110.28372579 -36.75 121.3125 C-34.63655434 132.74271862 -28.1779066 141.63439949 -18.75 148.3125 C-9.0137815 153.32549345 0.19018348 154.63300438 10.75 151.6875 C20.55101942 148.45067373 28.49878237 142.11016103 33.5390625 132.9765625 C37.85486104 123.63084047 38.65736417 114.18883083 35.75 104.25 C31.75478617 93.44189521 24.34941998 86.31653657 14.171875 81.28515625 C-0.86460949 75.24271711 -16.76396408 80.13372661 -27.75 91.3125 Z M-53.75 197.3125 C-52.53217215 200.96598355 -51.10032454 201.47002105 -47.78637695 203.16748047 C-47.09374756 203.50408691 -46.40111816 203.84069336 -45.6875 204.1875 C-44.97231201 204.53828613 -44.25712402 204.88907227 -43.52026367 205.25048828 C-17.72843791 217.52693451 9.81361035 218.21339917 36.578125 208.8515625 C42.80238031 206.24267251 48.52554245 202.86713235 54.25 199.3125 C49.88213684 189.4633968 37.81936791 183.29877603 28.16455078 179.48974609 C-1.03088518 169.07954134 -31.99781762 174.79797478 -53.75 197.3125 Z " fill="#000000" transform="translate(245.75,33.6875)"/>
<path d="M0 0 C1.08764648 0.27408691 1.08764648 0.27408691 2.19726562 0.55371094 C21.58106929 5.59416202 40.4394374 14.32706339 56 27 C56.56396484 27.45407227 57.12792969 27.90814453 57.70898438 28.37597656 C84.71767797 50.25816001 102.53818817 78.25569445 111 112 C111.17934082 112.7007666 111.35868164 113.4015332 111.54345703 114.12353516 C120.09545798 149.27421233 113.10620833 190.08302223 94.79492188 221.03710938 C89.7757931 229.11955617 84.16283009 236.7518132 78 244 C77.01386719 245.16982422 77.01386719 245.16982422 76.0078125 246.36328125 C71.67803256 251.3753806 67.13691291 255.8240742 62 260 C60.61554688 261.14082031 60.61554688 261.14082031 59.203125 262.3046875 C27.2890287 288.06268781 -12.80597747 298.55155995 -53.41796875 294.53515625 C-83.38532634 290.87974931 -110.01995863 278.22714871 -133 259 C-133.86753906 258.27554687 -134.73507813 257.55109375 -135.62890625 256.8046875 C-140.55208268 252.55626114 -144.90036962 248.04305997 -149 243 C-149.76054687 242.07703125 -150.52109375 241.1540625 -151.3046875 240.203125 C-173.1673841 213.11098528 -184.4644275 180.52186362 -184.3125 145.75 C-184.31034485 145.07335297 -184.3081897 144.39670593 -184.30596924 143.69955444 C-184.25081221 132.86661815 -183.65092013 122.52136885 -181 112 C-180.81195801 111.2275293 -180.62391602 110.45505859 -180.43017578 109.65917969 C-171.16878675 72.71677346 -147.45649047 39.22126751 -115 19 C-81.1476987 -1.08663521 -38.76723925 -10.18906627 0 0 Z M-129.1875 52.75 C-136.01341913 59.62759394 -141.83680214 66.80945105 -147 75 C-148.05767578 76.65902344 -148.05767578 76.65902344 -149.13671875 78.3515625 C-157.89636938 92.86755498 -163.03001033 108.36636913 -166 125 C-166.19207031 126.05574219 -166.38414062 127.11148438 -166.58203125 128.19921875 C-170.40869805 162.99685237 -162.23926935 198.41090586 -140.37890625 226.1640625 C-116.79495718 254.27891804 -86.17957609 273.73797984 -49.13354492 277.83666992 C-34.29585183 278.9725455 -19.49669211 278.39176788 -5 275 C-4.30390625 274.83902832 -3.6078125 274.67805664 -2.890625 274.51220703 C14.2407849 270.38401312 30.04778063 262.73966016 44 252 C44.95261719 251.26910156 45.90523437 250.53820312 46.88671875 249.78515625 C69.39542159 231.92260127 84.42823386 208.88510829 92.75 181.4375 C92.94883789 180.78982666 93.14767578 180.14215332 93.35253906 179.47485352 C96.49032666 168.56929242 97.36668215 157.55443801 97.3125 146.25 C97.30758545 145.02571289 97.3026709 143.80142578 97.29760742 142.54003906 C96.89513115 111.29136876 85.03421922 82.75058825 65 59 C64.48824219 58.36578125 63.97648438 57.7315625 63.44921875 57.078125 C59.71363847 52.5269598 55.55049715 48.72586011 51 45 C50.06285156 44.22527344 49.12570312 43.45054688 48.16015625 42.65234375 C-4.93156907 -0.26200047 -81.08874562 5.46132991 -129.1875 52.75 Z " fill="#000000" transform="translate(281,4)"/>
</svg>
