<svg enable-background="new 0 0 512 512" height="512" viewBox="0 0 512 512" width="512" xmlns="http://www.w3.org/2000/svg"><g id="_x37_6_Menu"><g><path d="m352.672 217.032h95.472c31.789 0 57.648-25.859 57.648-57.648v-24.673c0-6.369-5.164-11.53-11.53-11.53s-11.53 5.161-11.53 11.53v24.673c0 19.073-15.515 34.589-34.589 34.589h-95.472c-19.073 0-34.589-15.515-34.589-34.589v-95.539c0-19.073 15.515-34.589 34.589-34.589h95.472c19.073 0 34.589 15.515 34.589 34.589v15.294c0 6.369 5.164 11.53 11.53 11.53s11.53-5.161 11.53-11.53v-15.294c0-31.789-25.859-57.648-57.648-57.648h-95.472c-31.789 0-57.648 25.859-57.648 57.648v95.539c.001 31.789 25.86 57.648 57.648 57.648z"/><path d="m63.841 217.005h95.517c31.789 0 57.648-25.859 57.648-57.648v-95.516c0-31.789-25.859-57.648-57.648-57.648h-95.517c-31.789 0-57.648 25.859-57.648 57.648v95.517c0 31.788 25.859 57.647 57.648 57.647zm-34.589-153.164c0-19.073 15.515-34.589 34.589-34.589h95.517c19.073 0 34.589 15.515 34.589 34.589v95.517c0 19.073-15.515 34.589-34.589 34.589h-95.517c-19.073 0-34.589-15.515-34.589-34.589z"/><path d="m63.841 505.807h95.517c31.789 0 57.648-25.859 57.648-57.648v-95.513c0-31.789-25.859-57.648-57.648-57.648h-95.517c-31.789 0-57.648 25.859-57.648 57.648v95.513c0 31.789 25.859 57.648 57.648 57.648zm-34.589-153.161c0-19.073 15.515-34.589 34.589-34.589h95.517c19.073 0 34.589 15.515 34.589 34.589v95.513c0 19.073-15.515 34.589-34.589 34.589h-95.517c-19.073 0-34.589-15.515-34.589-34.589z"/><path d="m494.277 388.871h-82.343v-82.343c0-6.369-5.164-11.53-11.53-11.53-6.365 0-11.53 5.16-11.53 11.53v82.343h-82.351c-6.365 0-11.53 5.161-11.53 11.53s5.164 11.53 11.53 11.53h82.351v82.347c0 6.369 5.164 11.53 11.53 11.53 6.365 0 11.53-5.161 11.53-11.53v-82.348h82.343c6.365 0 11.53-5.161 11.53-11.53s-5.165-11.529-11.53-11.529z"/></g></g></svg>