<?xml version="1.0" encoding="UTF-8"?>
<svg version="1.1" xmlns="http://www.w3.org/2000/svg" width="512" height="512">
<path d="M0 0 C39.50369253 23.2217652 84.39732245 36.05247692 129.5246582 42.35864258 C143.00408228 44.28236093 155.79283314 46.74100593 164.57226562 58.13916016 C171.01142307 67.81781124 171.82662728 75.35023486 171.80395508 86.78393555 C171.80830827 88.12856833 171.81349343 89.47319864 171.81944275 90.81782532 C171.83279607 94.45929582 171.83341425 98.10066225 171.83087945 101.74215245 C171.8298047 104.79987739 171.83470724 107.85758172 171.83948487 110.91530222 C171.85057288 118.15050051 171.85102503 125.38564693 171.8449707 132.62084961 C171.83896588 140.02840623 171.85115395 147.43577122 171.87254077 154.84329516 C171.89031811 161.24119159 171.89613207 167.639028 171.89290303 174.03694814 C171.8911114 177.84044593 171.89350684 181.64380785 171.90761757 185.44728279 C172.11087569 245.44600615 154.27986184 300.73908542 113.90478516 345.94384766 C112.61043545 347.39579834 111.33293876 348.86272274 110.05664062 350.33056641 C105.51972982 355.49781987 100.79889314 360.08183438 95.52929688 364.48681641 C94.60761719 365.29634766 93.6859375 366.10587891 92.73632812 366.93994141 C77.70577859 380.08927885 61.37443101 390.12030999 43.86914062 399.66162109 C39.40572311 402.10083961 34.96234704 404.57535883 30.51879883 407.05053711 C27.15323645 408.92490698 23.78493731 410.79427346 20.41601562 412.66259766 C16.28192508 414.95641615 12.15041151 417.25472209 8.02264404 419.55989075 C5.58957052 420.91853953 3.15561436 422.27560304 0.72161865 423.63259888 C-0.97467918 424.57915915 -2.66973537 425.52794346 -4.36474609 426.47680664 C-30.46481103 441.02125563 -30.46481103 441.02125563 -44.3894043 437.81469727 C-52.61423331 435.37816317 -59.69374501 431.97260362 -67.09570312 427.67431641 C-68.26469788 427.00834076 -69.4344769 426.34374012 -70.60498047 425.68041992 C-73.02678175 424.30664492 -75.44517025 422.92713131 -77.86132812 421.54345703 C-83.5738449 418.27927148 -89.33865575 415.10903047 -95.09570312 411.92431641 C-97.33297517 410.6800512 -99.56995532 409.43526102 -101.80664062 408.18994141 C-106.26395478 405.70973552 -110.72820033 403.2426531 -115.19726562 400.78369141 C-126.61870717 394.47896767 -137.89151868 388.14193073 -148.47070312 380.48681641 C-149.30384033 379.88474365 -149.30384033 379.88474365 -150.15380859 379.27050781 C-157.46673353 373.92913221 -164.2255699 368.14088425 -170.81445312 361.93212891 C-173.41241843 359.48026636 -173.41241843 359.48026636 -176.11132812 357.39306641 C-178.25348868 355.66231417 -179.95218284 353.96081776 -181.72070312 351.86181641 C-184.31868375 348.81030899 -186.98875833 345.85627859 -189.72070312 342.92431641 C-204.15335183 326.8527059 -215.38482144 308.01322087 -224.47070312 288.48681641 C-224.99148437 287.37435547 -225.51226562 286.26189453 -226.04882812 285.11572266 C-238.00606923 258.4007287 -244.7823313 229.19823418 -244.76123047 199.9074707 C-244.76723687 198.52248277 -244.77404713 197.13749814 -244.78158569 195.7525177 C-244.79902171 192.04209058 -244.80393095 188.33175602 -244.80521727 184.62129188 C-244.80665035 182.29525111 -244.81094113 179.96923307 -244.8162117 177.64319801 C-244.83462573 169.50731565 -244.84289173 161.37149823 -244.84130859 153.2355957 C-244.84010405 145.68217188 -244.86128968 138.12903229 -244.89279592 130.57568043 C-244.91900575 124.05721543 -244.92967418 117.5388432 -244.92839777 111.02032596 C-244.92789026 107.14126786 -244.93345824 103.26246408 -244.95475388 99.38345909 C-244.97422074 95.73964621 -244.97420394 92.09632859 -244.95972061 88.45249748 C-244.95665927 86.49360608 -244.97324239 84.53471411 -244.99060059 82.57589722 C-244.90877572 70.9992506 -241.73373929 61.78062738 -233.47070312 53.48681641 C-222.6585932 44.57763783 -209.69814443 43.3965826 -196.24468994 41.46786499 C-148.71736656 34.57474772 -103.51575932 18.45006285 -62.10742188 -5.84912109 C-38.50202602 -19.59452943 -22.41139384 -13.21624976 0 0 Z M-42.69335938 21.34619141 C-44.31806152 22.26924072 -44.31806152 22.26924072 -45.97558594 23.2109375 C-46.55457642 23.54115906 -47.13356689 23.87138062 -47.73010254 24.21160889 C-68.56003146 36.05509667 -89.92703701 46.31193782 -112.47070312 54.48681641 C-113.40108398 54.82664551 -114.33146484 55.16647461 -115.29003906 55.51660156 C-143.61646549 65.73934193 -173.65738234 73.03832288 -203.66210938 76.02978516 C-207.37739898 76.47561991 -208.96235259 76.76943666 -211.47070312 79.48681641 C-212.40667076 82.29471931 -212.5962881 83.98637991 -212.59768677 86.88902283 C-212.60050659 87.78980057 -212.60332642 88.69057831 -212.60623169 89.61865234 C-212.60420746 90.60502686 -212.60218323 91.59140137 -212.60009766 92.60766602 C-212.60184998 93.648871 -212.60360229 94.69007599 -212.60540771 95.76283264 C-212.60982418 99.22162524 -212.60688532 102.68036699 -212.60351562 106.13916016 C-212.60418959 108.55318715 -212.60516039 110.96721408 -212.60641479 113.38124084 C-212.60789219 118.45802451 -212.60573905 123.53479063 -212.60107422 128.61157227 C-212.59542863 135.06538544 -212.59862246 141.51915654 -212.60464668 147.9729681 C-212.60829565 152.97067062 -212.60709312 157.96836352 -212.60451889 162.96606636 C-212.60385884 165.34149747 -212.60464523 167.7169295 -212.60699844 170.09235954 C-212.79439408 197.36700313 -212.79439408 197.36700313 -209.78320312 224.42431641 C-209.60877686 225.42245361 -209.43435059 226.42059082 -209.25463867 227.44897461 C-200.20900837 276.81896981 -171.82265159 323.50510893 -130.47070312 352.48681641 C-129.93396973 352.87321289 -129.39723633 353.25960938 -128.84423828 353.65771484 C-118.96976903 360.7460388 -108.41437738 366.43334497 -97.70117188 372.14306641 C-91.84150567 375.2701565 -86.05434283 378.51233116 -80.28320312 381.79931641 C-71.79223262 386.62085984 -63.28369319 391.40951197 -54.74545288 396.14682007 C-53.44603325 396.86862555 -52.14753606 397.59209436 -50.8500061 398.31729126 C-49.03463677 399.33145045 -47.2160315 400.33955177 -45.39648438 401.34619141 C-44.34887939 401.92852539 -43.30127441 402.51085937 -42.22192383 403.11083984 C-38.97579095 404.79787458 -38.97579095 404.79787458 -35.47070312 405.48681641 C-32.8870568 404.54234504 -32.8870568 404.54234504 -30.20117188 402.97900391 C-29.15985107 402.41133301 -28.11853027 401.84366211 -27.0456543 401.25878906 C-25.92779541 400.63278809 -24.80993652 400.00678711 -23.65820312 399.36181641 C-22.48204209 398.71423231 -21.30535785 398.06759764 -20.12817383 397.421875 C-16.56539811 395.46163403 -13.01695047 393.47681138 -9.47070312 391.48681641 C-8.47941406 390.93058594 -7.488125 390.37435547 -6.46679688 389.80126953 C-2.77074643 387.72191987 0.92155726 385.6363091 4.60595703 383.53637695 C10.04138192 380.44077574 15.50035389 377.39455013 20.99023438 374.39697266 C21.63117538 374.04632751 22.27211639 373.69568237 22.93247986 373.33441162 C28.07542303 370.52130615 28.07542303 370.52130615 30.54702759 369.18414307 C47.67743955 359.91637684 63.39601491 348.91134972 77.52929688 335.48681641 C78.05104492 334.99761719 78.57279297 334.50841797 79.11035156 334.00439453 C114.78954033 300.36342832 136.6870451 252.60488091 139.07910156 203.60180664 C139.12107037 202.7432907 139.16303917 201.88477476 139.20627975 201.00024319 C139.71621511 189.55408702 139.7138033 178.10241365 139.73242188 166.64697266 C139.73524925 165.457973 139.73807663 164.26897335 139.74098969 163.04394341 C139.7558288 156.7811652 139.76516075 150.51840923 139.76953125 144.25561523 C139.77506892 137.79961571 139.79924997 131.34382147 139.8275032 124.887887 C139.84608826 119.89940266 139.85133244 114.91096897 139.85286713 109.92245293 C139.85589128 107.54019455 139.86391175 105.15793702 139.87705231 102.77571297 C139.8940646 99.46188297 139.89224701 96.14857246 139.88574219 92.8347168 C139.89495697 91.85553284 139.90417175 90.87634888 139.91366577 89.86749268 C139.8834128 84.95931731 139.83358272 81.41975704 136.52929688 77.48681641 C134.54262899 76.53216746 134.54262899 76.53216746 132.22460938 76.30712891 C131.33290039 76.16823242 130.44119141 76.02933594 129.52246094 75.88623047 C128.5347168 75.75442383 127.54697266 75.62261719 126.52929688 75.48681641 C124.31820682 75.15188445 122.10727892 74.81588089 119.89648438 74.47900391 C118.69499756 74.30151611 117.49351074 74.12402832 116.25561523 73.94116211 C64.80002075 66.20080549 15.13902226 48.61643269 -29.55932617 21.88867188 C-30.30609619 21.44410645 -31.05286621 20.99954102 -31.82226562 20.54150391 C-32.80960693 19.94571533 -32.80960693 19.94571533 -33.81689453 19.33789062 C-37.3748582 17.50691021 -39.48030712 19.50154675 -42.69335938 21.34619141 Z " fill="#15222B" transform="translate(292.470703125,44.51318359375)"/>
<path d="M0 0 C10.81018783 9.71567979 18.1574966 22.63014479 20.1081543 37.13916016 C20.18852807 39.89606705 20.22517127 42.62570295 20.20581055 45.38134766 C20.20368813 46.53390549 20.20368813 46.53390549 20.20152283 47.70974731 C20.19596113 50.14459254 20.1834159 52.5793431 20.1706543 55.01416016 C20.16563434 56.67301299 20.1610723 58.33186727 20.15698242 59.99072266 C20.14600428 64.04023786 20.12876636 68.089683 20.1081543 72.13916016 C23.08399963 72.48534393 23.08399963 72.48534393 26.05984497 72.83152771 C36.31211708 74.37130078 45.59296196 80.76599461 52.14331055 88.56103516 C61.95643063 101.97854966 63.4247691 115.06955707 63.40893555 131.22119141 C63.41283077 132.88352056 63.41716712 134.54584874 63.42192078 136.20817566 C63.429353 139.68202956 63.42911397 143.15578179 63.42382812 146.62963867 C63.4180431 151.05071717 63.43495566 155.4713754 63.4581728 159.89238453 C63.47300625 163.323363 63.47376877 166.75424255 63.47066307 170.18524742 C63.47117165 171.81370563 63.47632093 173.44217007 63.48647499 175.07059669 C63.57498679 191.25070284 61.24707172 206.1504139 49.8581543 218.51806641 C41.37172652 226.37937785 30.66942312 232.23116876 18.92443848 232.28633118 C17.35192825 232.29706413 17.35192825 232.29706413 15.74765015 232.30801392 C14.60269073 232.31070282 13.45773132 232.31339172 12.27807617 232.31616211 C11.06781769 232.32273331 9.8575592 232.3293045 8.61062622 232.33607483 C4.59938305 232.35580792 0.58817988 232.36747774 -3.4230957 232.37744141 C-4.80840575 232.38149143 -6.19371561 232.38560843 -7.57902527 232.38979149 C-14.09305151 232.40883912 -20.60706649 232.42306739 -27.12111521 232.43140346 C-34.61587604 232.441155 -42.11033989 232.46742134 -49.6049962 232.50790435 C-55.41243744 232.53818565 -61.21979418 232.5528839 -67.02731276 232.55618447 C-70.48856269 232.55852258 -73.94949527 232.56731837 -77.41065979 232.59264565 C-81.28273723 232.6205213 -85.15443286 232.61605872 -89.02661133 232.60913086 C-90.15537689 232.62194092 -91.28414246 232.63475098 -92.44711304 232.64794922 C-104.17106909 232.57192989 -113.57066669 229.16381681 -122.8918457 222.13916016 C-123.7580957 221.56166016 -124.6243457 220.98416016 -125.5168457 220.38916016 C-134.87765692 211.52102322 -140.40197989 199.28587512 -141.08799744 186.47663879 C-141.19801556 182.00383084 -141.19701275 177.53103195 -141.19262695 173.05712891 C-141.19652218 171.39479975 -141.20085853 169.73247158 -141.20561218 168.07014465 C-141.2130444 164.59629075 -141.21280537 161.12253852 -141.20751953 157.64868164 C-141.20173451 153.22760315 -141.21864707 148.80694491 -141.2418642 144.38593578 C-141.25669766 140.95495731 -141.25746018 137.52407776 -141.25435448 134.09307289 C-141.25486306 132.46461468 -141.26001234 130.83615025 -141.2701664 129.20772362 C-141.35867819 113.02761747 -139.03076312 98.12790642 -127.6418457 85.76025391 C-118.87153966 77.63597487 -109.6060096 73.52720732 -97.8918457 72.13916016 C-97.91541138 70.64304199 -97.91541138 70.64304199 -97.93945312 69.11669922 C-97.99441077 65.35945958 -98.02843096 61.60225421 -98.05664062 57.84472656 C-98.07157926 56.22910557 -98.09193771 54.61352406 -98.11816406 52.99804688 C-98.41777153 34.04640606 -94.69822344 17.40591154 -81.36035156 3.27392578 C-59.50528749 -18.43752456 -23.53393265 -19.89749408 0 0 Z M-59.8918457 29.13916016 C-63.616466 35.12353485 -65.0427395 40.40183778 -64.98950195 47.43212891 C-64.98700439 48.72401123 -64.98450684 50.01589355 -64.98193359 51.34692383 C-64.97282959 52.99023682 -64.96372559 54.6335498 -64.9543457 56.32666016 C-64.9337207 61.54478516 -64.9130957 66.76291016 -64.8918457 72.13916016 C-47.7318457 72.13916016 -30.5718457 72.13916016 -12.8918457 72.13916016 C-12.8093457 67.04478516 -12.7268457 61.95041016 -12.6418457 56.70166016 C-12.60542969 55.11297119 -12.56901367 53.52428223 -12.53149414 51.88745117 C-12.44935172 41.38845725 -13.92225929 33.58336509 -21.1809082 25.64306641 C-26.6196993 20.86239386 -33.4371686 18.7415259 -40.61450195 18.86181641 C-48.04821052 19.76712225 -55.02680044 23.45896103 -59.8918457 29.13916016 Z M-102.95043945 108.85791016 C-103.40547852 109.44572266 -103.86051758 110.03353516 -104.3293457 110.63916016 C-104.80243164 111.22697266 -105.27551758 111.81478516 -105.76293945 112.42041016 C-108.18965559 116.11506448 -108.02892552 119.51689596 -108.05297852 123.81030273 C-108.05794342 124.483853 -108.06290833 125.15740326 -108.06802368 125.85136414 C-108.0826236 128.07881698 -108.08944405 130.30619858 -108.0949707 132.53369141 C-108.10072444 134.08444724 -108.10648214 135.63520306 -108.11224365 137.18595886 C-108.1227478 140.43834769 -108.12859414 143.69071184 -108.13208008 146.94311523 C-108.13756019 151.10262325 -108.16158012 155.26180315 -108.19005203 159.42120838 C-108.20871359 162.62547241 -108.2138859 165.82965801 -108.21541595 169.03397179 C-108.21843565 170.56691975 -108.22644108 172.09986655 -108.23960114 173.632761 C-108.25673408 175.78203611 -108.25476414 177.93051753 -108.24829102 180.07983398 C-108.25193665 181.30100418 -108.25558228 182.52217438 -108.25933838 183.78034973 C-107.71556091 188.75036835 -105.78028964 192.0222592 -102.7043457 195.88916016 C-96.57494959 200.79267705 -88.90439762 200.43343441 -81.39599609 200.41381836 C-79.86511101 200.42148476 -79.86511101 200.42148476 -78.30329895 200.42930603 C-74.94863936 200.44314169 -71.59418659 200.4422499 -68.23950195 200.43994141 C-65.89594955 200.44383138 -63.55239784 200.44816667 -61.20884705 200.45292664 C-56.30408438 200.46037571 -51.39939372 200.46010687 -46.49462891 200.45483398 C-40.22249867 200.44903841 -33.95066364 200.46597915 -27.67858219 200.48917866 C-22.8408792 200.50393928 -18.00324696 200.50478455 -13.16552544 200.50166893 C-10.85356499 200.50218088 -8.54160045 200.50739473 -6.22966194 200.51748085 C-2.99194487 200.52987412 0.24520161 200.52303609 3.48291016 200.51147461 C4.90228882 200.52294022 4.90228882 200.52294022 6.3503418 200.53463745 C13.07620025 200.48179026 19.84978297 199.73641266 25.2644043 195.42041016 C25.7078418 194.83259766 26.1512793 194.24478516 26.6081543 193.63916016 C27.0722168 193.05134766 27.5362793 192.46353516 28.0144043 191.85791016 C30.38159012 188.13804673 30.24524914 184.75874205 30.26928711 180.46801758 C30.27425201 179.79446732 30.27921692 179.12091705 30.28433228 178.42695618 C30.29893219 176.19950333 30.30575264 173.97212173 30.3112793 171.74462891 C30.31703303 170.19387307 30.32279074 168.64311725 30.32855225 167.09236145 C30.3390564 163.83997263 30.34490273 160.58760848 30.34838867 157.33520508 C30.35386879 153.17569707 30.37788871 149.01651716 30.40636063 144.85711193 C30.42502219 141.6528479 30.4301945 138.4486623 30.43172455 135.24434853 C30.43474424 133.71140056 30.44274967 132.17845376 30.45590973 130.64555931 C30.47304267 128.4962842 30.47107273 126.34780278 30.46459961 124.19848633 C30.46824524 122.97731613 30.47189087 121.75614594 30.47564697 120.49797058 C29.79648631 114.29057635 26.88277062 110.04566442 22.1081543 106.13916016 C16.2279965 103.94481164 10.75683526 103.8486242 4.52636719 103.86450195 C3.48480972 103.85939102 2.44325226 103.85428009 1.37013245 103.84901428 C-2.05970059 103.83515784 -5.48933182 103.83607201 -8.91918945 103.83837891 C-11.31140721 103.83449003 -13.70362428 103.83015496 -16.09584045 103.82539368 C-21.10493205 103.81794011 -26.11395316 103.81821668 -31.12304688 103.82348633 C-37.5331853 103.82928202 -43.94303489 103.81234306 -50.35312557 103.78914165 C-55.29201436 103.77439108 -60.23083377 103.7735344 -65.16974068 103.77665138 C-67.53276708 103.77613892 -69.89579744 103.7709152 -72.25880241 103.76083946 C-75.56627924 103.74846603 -78.87319581 103.75527248 -82.18066406 103.7668457 C-83.1507843 103.75920197 -84.12090454 103.75155823 -85.12042236 103.74368286 C-91.70413973 103.79445216 -97.70145777 104.47545866 -102.95043945 108.85791016 Z " fill="#15222B" transform="translate(294.891845703125,135.86083984375)"/>
</svg>
