<?xml version="1.0" encoding="UTF-8"?>
<svg version="1.1" xmlns="http://www.w3.org/2000/svg" width="512" height="512">
<path d="M0 0 C2.30582442 0.00315136 4.61034924 -0.02036856 6.91601562 -0.0456543 C20.41256354 -0.10324585 33.44596653 1.8052874 46.44726562 5.50317383 C47.54433838 5.81399902 47.54433838 5.81399902 48.66357422 6.13110352 C88.24214116 17.84750239 122.64926567 45.08368953 142.88476562 81.12817383 C155.81278115 104.95125373 162.96502976 130.63046001 162.88793945 157.7434082 C162.8847881 160.04923262 162.90830801 162.35375745 162.93359375 164.65942383 C162.9911853 178.15597175 161.08265205 191.18937474 157.38476562 204.19067383 C157.07394043 205.28774658 157.07394043 205.28774658 156.75683594 206.40698242 C145.04043706 245.98554937 117.80424992 280.39267387 81.75976562 300.62817383 C57.93668573 313.55618936 32.25747944 320.70843797 5.14453125 320.63134766 C2.83870683 320.6281963 0.53418201 320.65171622 -1.77148438 320.67700195 C-15.26803229 320.7345935 -28.30143528 318.82606025 -41.30273438 315.12817383 C-42.39980713 314.81734863 -42.39980713 314.81734863 -43.51904297 314.50024414 C-83.09760991 302.78384526 -117.50473442 275.54765813 -137.74023438 239.50317383 C-150.6682499 215.68009393 -157.82049851 190.00088765 -157.7434082 162.88793945 C-157.74025685 160.58211503 -157.76377676 158.27759021 -157.7890625 155.97192383 C-157.84665405 142.47537591 -155.9381208 129.44197292 -152.24023438 116.44067383 C-152.03301758 115.70929199 -151.82580078 114.97791016 -151.61230469 114.22436523 C-139.89590581 74.64579829 -112.65971867 40.23867378 -76.61523438 20.00317383 C-52.79215448 7.0751583 -27.11294819 -0.07709031 0 0 Z M-97.10351562 64.05786133 C-98.94337035 66.09650496 -100.69143809 68.18799929 -102.42773438 70.31567383 C-103.58789062 71.71946289 -103.58789062 71.71946289 -104.77148438 73.15161133 C-120.51432633 92.63134399 -130.28702232 115.69522377 -134.42773438 140.31567383 C-134.61335938 141.36110352 -134.79898438 142.4065332 -134.99023438 143.48364258 C-139.3763078 181.90094646 -127.64649964 218.57826191 -103.77294922 248.63891602 C-98.78323375 254.85840164 -93.61010277 260.27053039 -87.42773438 265.31567383 C-86.491875 266.08911133 -85.55601562 266.86254883 -84.59179688 267.65942383 C-65.11206421 283.40226578 -42.04818443 293.17496177 -17.42773438 297.31567383 C-16.38230469 297.50129883 -15.336875 297.68692383 -14.25976562 297.87817383 C24.15753825 302.26424726 60.8348537 290.53443909 90.89550781 266.66088867 C97.11499344 261.67117321 102.52712218 256.49804223 107.57226562 250.31567383 C108.34570312 249.37981445 109.11914062 248.44395508 109.91601562 247.47973633 C125.65885758 228.00000367 135.43155357 204.93612388 139.57226562 180.31567383 C139.75789063 179.27024414 139.94351562 178.22481445 140.13476562 177.14770508 C144.52083905 138.7304012 132.79103089 102.05308575 108.91748047 71.99243164 C103.927765 65.77294601 98.75463402 60.36081727 92.57226562 55.31567383 C91.63640625 54.54223633 90.70054687 53.76879883 89.73632812 52.97192383 C70.25659546 37.22908187 47.19271568 27.45638588 22.57226562 23.31567383 C21.52683594 23.13004883 20.48140625 22.94442383 19.40429688 22.75317383 C-23.11782685 17.89845634 -67.27652188 33.04891212 -97.10351562 64.05786133 Z " fill="#000000" transform="translate(221.427734375,-0.315673828125)"/>
<path d="M0 0 C1.29114967 -0.00525696 1.29114967 -0.00525696 2.60838318 -0.01062012 C5.44668704 -0.01940484 8.28474058 -0.01359977 11.12304688 -0.00683594 C13.09932503 -0.00818352 15.07560286 -0.01012484 17.05187988 -0.01263428 C21.1910315 -0.01558113 25.33009672 -0.01130198 29.46923828 -0.00195312 C34.77213671 0.00944111 40.07483269 0.0028793 45.37772369 -0.00909805 C49.45779951 -0.01632848 53.5378274 -0.01402327 57.61790466 -0.00884247 C59.57311528 -0.00750925 61.52833025 -0.00914222 63.48353577 -0.01380157 C66.21700551 -0.01888618 68.95014833 -0.01112931 71.68359375 0 C72.48997787 -0.00404846 73.296362 -0.00809692 74.12718201 -0.01226807 C79.80708621 0.03052733 83.36768275 0.47782137 87.62095642 4.31495667 C90.00551899 8.39421488 89.91085791 11.71284071 89.87524414 16.36010742 C89.88385971 17.26803543 89.89247528 18.17596344 89.90135193 19.11140442 C89.92402209 22.10743867 89.9172708 25.10253832 89.90820312 28.09863281 C89.91343843 30.18461892 89.91971457 32.27060264 89.92698669 34.35658264 C89.93739301 38.72701156 89.93282626 43.09711493 89.91821289 47.4675293 C89.90102947 53.06434253 89.92451415 58.66012873 89.95970249 64.25682735 C89.98167862 68.56432378 89.98023436 72.87157459 89.97193718 77.17910957 C89.97111769 79.24235726 89.97798053 81.30562299 89.99270821 83.36881828 C90.01015671 86.25587679 89.99560865 89.14109136 89.97290039 92.02807617 C89.98459259 92.87761871 89.99628479 93.72716125 90.0083313 94.60244751 C89.94136833 98.79334897 89.60596313 101.45692635 86.92906189 104.77882385 C83.82472156 107.75442008 82.44821658 108.2210213 78.33398438 108.42285156 C75.0281907 108.15060973 73.01817789 107.18827305 70.34179688 105.25878906 C67.85527831 101.10684572 66.96108708 97.97663594 66.90942383 93.16162109 C66.88962967 91.98084991 66.86983551 90.80007874 66.84944153 89.58352661 C66.83985664 87.69414871 66.83985664 87.69414871 66.83007812 85.76660156 C66.80315132 83.81498611 66.80315132 83.81498611 66.77568054 81.82394409 C66.72834867 78.38156119 66.69843132 74.93924307 66.67224121 71.49664307 C66.64235016 67.97712416 66.59584944 64.45782805 66.55078125 60.93847656 C66.46494004 54.0453747 66.39750999 47.15219851 66.34179688 40.25878906 C65.61696421 40.98454352 64.89213154 41.71029799 64.14533424 42.45804501 C46.53082995 60.09472174 28.91346344 77.72853536 11.29306984 95.35932827 C2.77214692 103.88541352 -5.7478341 112.41243607 -14.265625 120.94165039 C-21.68734364 128.37331776 -29.11080214 135.80324195 -36.53637946 143.23105389 C-40.4702479 147.16622911 -44.40322305 151.1022881 -48.33411789 155.04043388 C-52.0303898 158.74346897 -55.728975 162.44417728 -59.42938423 166.14307785 C-60.79042109 167.5043909 -62.15059458 168.86656775 -63.50985909 170.2296505 C-65.35921467 172.08394793 -67.21159082 173.93517317 -69.06478882 175.78562927 C-69.60758685 176.33134014 -70.15038487 176.87705101 -70.70963132 177.43929857 C-74.09244862 180.80851296 -76.01010973 182.42187777 -80.78320312 182.69628906 C-89.37943683 182.51258458 -95.47477802 174.73287075 -101.17578125 168.96826172 C-101.87920654 168.26512848 -102.58263184 167.56199524 -103.30737305 166.83755493 C-105.6061789 164.53736781 -107.89783983 162.23020255 -110.18945312 159.92285156 C-111.79183861 158.31673168 -113.39466939 156.71105594 -114.9979248 155.10580444 C-119.19772755 150.89839895 -123.39148686 146.68502012 -127.58398438 142.47033691 C-131.87069079 138.16309952 -136.16312928 133.86158278 -140.45507812 129.55957031 C-148.86171584 121.13154197 -157.26197539 112.69718727 -165.65820312 104.25878906 C-169.16401746 105.75864729 -171.41343748 107.77140564 -174.09178162 110.46531677 C-174.97354065 111.3472168 -175.85529968 112.22911682 -176.76377869 113.13774109 C-177.733148 114.1173778 -178.70242911 115.09710181 -179.67163086 116.0769043 C-180.69813251 117.10724525 -181.72509118 118.13713107 -182.75247192 119.16659546 C-184.96248451 121.38292708 -187.16935198 123.6023274 -189.37386894 125.82412529 C-192.86079304 129.338102 -196.35533957 132.84443089 -199.85108948 136.34962463 C-207.90269828 144.42532138 -215.94427115 152.51098788 -223.98576355 160.59675598 C-231.35372047 168.0050807 -238.72377993 175.41128054 -246.1019817 182.80940396 C-249.57571751 186.29309811 -253.04451896 189.7816099 -256.50961483 193.27389705 C-258.66782558 195.44704286 -260.83018652 197.6160225 -262.99368668 199.78390121 C-263.9947675 200.78872132 -264.99412024 201.79526654 -265.9915905 202.80367088 C-267.35561181 204.18216871 -268.7264716 205.55388977 -270.09764099 206.92527771 C-270.86214286 207.6942208 -271.62664473 208.46316389 -272.41431332 209.25540829 C-277.00770007 213.35645758 -280.43745909 214.81411262 -286.50195312 214.62207031 C-289.72223493 214.07952283 -291.45770684 212.59681637 -293.65820312 210.25878906 C-295.43936871 206.6964579 -295.24780901 203.13830614 -294.65820312 199.25878906 C-291.23978981 193.100692 -285.76507736 188.08801509 -280.78320312 183.19628906 C-280.11417969 182.52791016 -279.44515625 181.85953125 -278.75585938 181.17089844 C-275.62299165 178.0651943 -272.44753632 175.07276702 -269.09820557 172.20176697 C-264.3053768 168.01299543 -259.82181743 163.54803401 -255.33642578 159.03466797 C-253.9623184 157.65831933 -252.5882109 156.28197082 -251.21409869 154.90562701 C-249.75359619 153.44177662 -248.29434969 151.97668493 -246.83546829 150.51121902 C-243.78741711 147.44954856 -240.73546815 144.39178306 -237.68295288 141.33456421 C-231.21338485 134.85394738 -224.74808943 128.36907574 -218.28320312 121.88378906 C-211.28160462 114.86014795 -204.27925742 107.83726242 -197.27204931 100.81921709 C-194.23629104 97.77847346 -191.20298771 94.73530813 -188.17153478 91.69027257 C-185.85085383 89.36040709 -183.52697272 87.03373698 -181.20361328 84.70654297 C-180.36310425 83.86086761 -179.52259521 83.01519226 -178.65661621 82.14389038 C-177.89132599 81.37852966 -177.12603577 80.61316895 -176.33755493 79.82461548 C-175.67134943 79.15618937 -175.00514393 78.48776325 -174.31875038 77.7990818 C-171.4242575 75.11420406 -168.77053024 74.71915752 -164.8338623 74.80895996 C-156.87345296 76.45481691 -148.77668989 88.02665165 -143.13032532 93.71150208 C-141.21443844 95.64030669 -139.2953104 97.56583509 -137.37536621 99.49060059 C-132.61042905 104.26881346 -127.85098658 109.05248722 -123.09136963 113.83599854 C-119.05804837 117.8891419 -115.02262239 121.94016798 -110.98445129 125.98847961 C-109.10583396 127.87351682 -107.23028564 129.76157004 -105.3548584 131.64978027 C-99.62645983 137.4032172 -93.87986553 143.03336672 -87.65820312 148.25878906 C-85.34820312 150.23878906 -83.03820312 152.21878906 -80.65820312 154.25878906 C-37.42820312 111.02878906 5.80179688 67.79878906 50.34179688 23.25878906 C29.88179688 22.92878906 9.42179687 22.59878906 -11.65820312 22.25878906 C-17.55182015 16.36517204 -17.55182015 16.36517204 -17.97070312 12.00878906 C-17.59957332 7.55523141 -16.55506039 5.62540696 -13.65820312 2.25878906 C-9.27179955 -0.14315574 -4.8743291 -0.02447163 0 0 Z " fill="#000000" transform="translate(358.658203125,297.7412109375)"/>
<path d="M0 0 C1.73320926 -0.01658573 3.46634939 -0.0439104 5.19921875 -0.08203125 C7.70763339 -0.13685738 10.21445532 -0.15867626 12.72338867 -0.17333984 C13.49436386 -0.19600922 14.26533905 -0.21867859 15.05967712 -0.24203491 C19.13646548 -0.22606333 20.92311391 0.1538475 24.12988281 2.7578125 C27.32419499 6.82706346 27.59803288 9.15124218 27.16479492 14.35009766 C25.47112198 17.67471492 24.28900808 19.76824205 20.94116211 21.50097656 C17.65905097 22.50477383 14.86224652 22.60609797 11.43041992 22.62353516 C10.13362305 22.64416016 8.83682617 22.66478516 7.50073242 22.68603516 C5.4625738 22.70851844 3.42475111 22.72506889 1.38647461 22.73095703 C-6.88478562 22.77112828 -13.62370453 23.0838906 -20.83520508 27.35009766 C-21.48682617 27.71748047 -22.13844727 28.08486328 -22.80981445 28.46337891 C-31.14191056 33.384731 -33.96495146 42.27323579 -36.27563477 51.1328125 C-36.46029297 51.8645166 -36.64495117 52.5962207 -36.83520508 53.35009766 C-35.29195557 53.31867676 -35.29195557 53.31867676 -33.7175293 53.28662109 C-29.88222295 53.21394772 -26.04697686 53.16819945 -22.21118164 53.13037109 C-20.55450183 53.11031757 -18.89789226 53.08306736 -17.24145508 53.04833984 C-14.8532575 52.99954254 -12.4659996 52.97706702 -10.07739258 52.95947266 C-8.97547073 52.92850494 -8.97547073 52.92850494 -7.85128784 52.89691162 C-2.68973827 52.89468474 0.2001786 54.08547333 4.16479492 57.35009766 C6.07782956 60.42758815 6.1673289 62.20819473 6.10229492 65.85009766 C4.98756455 70.01175772 3.44505819 71.62987934 0.16479492 74.35009766 C-2.95474636 75.9098683 -6.26479892 75.47113892 -9.68676758 75.44775391 C-10.46079926 75.44633896 -11.23483093 75.44492401 -12.03231812 75.44346619 C-14.50831949 75.43786169 -16.98423096 75.42530849 -19.46020508 75.41259766 C-21.13728711 75.40758323 -22.81437055 75.40302023 -24.49145508 75.39892578 C-28.60607314 75.38789081 -32.72062386 75.3706232 -36.83520508 75.35009766 C-36.23134776 77.41590546 -35.61900906 79.47923513 -35.00317383 81.54150391 C-34.49306763 83.26542358 -34.49306763 83.26542358 -33.97265625 85.02416992 C-31.30784196 92.81613494 -27.14054841 97.7217818 -20.27661133 102.15869141 C-14.98235695 104.74228754 -9.86561262 105.59547591 -4.01879883 105.65869141 C-2.7600293 105.68382812 -1.50125977 105.70896484 -0.2043457 105.73486328 C2.42060419 105.77007125 5.04561028 105.8013097 7.6706543 105.82861328 C9.556875 105.86825195 9.556875 105.86825195 11.48120117 105.90869141 C13.1896521 105.92887329 13.1896521 105.92887329 14.93261719 105.94946289 C19.59872203 106.52783573 23.01019975 107.96458345 26.03979492 111.60009766 C27.47638298 115.11175737 27.56839415 117.58317157 27.16479492 121.35009766 C25.51340187 124.88879706 24.44874263 126.16079919 21.16479492 128.35009766 C18.47495099 128.57044007 15.89143992 128.67811358 13.19995117 128.68603516 C12.41140244 128.69269196 11.6228537 128.69934875 10.81040955 128.70620728 C9.13681364 128.71633671 7.46317731 128.7210242 5.78955078 128.72070312 C3.26743607 128.72502881 0.74714123 128.76120855 -1.7746582 128.79931641 C-17.78917082 128.91214424 -31.15462435 124.95300239 -43.25317383 113.95947266 C-52.46145609 104.5920349 -58.86740384 92.03497443 -58.96020508 78.78759766 C-58.91895508 77.65322266 -58.87770508 76.51884766 -58.83520508 75.35009766 C-59.55708008 75.28822266 -60.27895508 75.22634766 -61.02270508 75.16259766 C-64.8477939 74.057572 -66.39211268 72.47182684 -68.83520508 69.35009766 C-70.02003389 65.2772486 -70.09962712 63.11398355 -68.71020508 59.10009766 C-66.66441329 56.09960303 -65.12698879 54.83140033 -61.83520508 53.35009766 C-60.84520508 53.35009766 -59.85520508 53.35009766 -58.83520508 53.35009766 C-58.89708008 52.25697266 -58.95895508 51.16384766 -59.02270508 50.03759766 C-58.95857283 37.87384835 -53.17763133 24.98802425 -44.86645508 16.22119141 C-31.24885188 3.67728384 -17.90791435 0.12562192 0 0 Z " fill="#000000" transform="translate(239.835205078125,95.64990234375)"/>
</svg>
